<svg width="256" height="256" viewBox="0 0 256 256" fill="none" xmlns="http://www.w3.org/2000/svg">
<g clip-path="url(#clip0_17_16)">
<path d="M218.123 218.127H180.192V158.724C180.192 144.559 179.939 126.324 160.464 126.324C140.708 126.324 137.685 141.758 137.685 157.693V218.123H99.755V95.9671H136.168V112.661H136.678C140.322 106.43 145.588 101.304 151.915 97.8293C158.242 94.3543 165.393 92.6605 172.606 92.9281C211.051 92.9281 218.139 118.216 218.139 151.114L218.123 218.127ZM56.955 79.2701C44.798 79.2721 34.941 69.4181 34.939 57.2611C34.937 45.1041 44.79 35.2471 56.947 35.2451C69.104 35.2421 78.961 45.0961 78.963 57.2531C78.9641 63.0912 76.646 68.6905 72.5187 72.8195C68.3915 76.9485 62.793 79.2688 56.955 79.2701ZM75.921 218.128H37.95V95.9671H75.92V218.127L75.921 218.128ZM237.033 0.0181436H18.89C8.58 -0.0978564 0.125001 8.16114 -0.000999451 18.4711V237.524C0.121001 247.839 8.575 256.106 18.889 255.998H237.033C247.369 256.126 255.856 247.859 255.999 237.524V18.4541C255.852 8.12414 247.364 -0.133856 237.033 0.00114361" fill="#0A66C2"/>
</g>
<defs>
<clipPath id="clip0_17_16">
<rect width="256" height="256" fill="white"/>
</clipPath>
</defs>
</svg>
